<svg aria-roledescription="er" role="graphics-document document" viewBox="0 0 189.42529296875 650.03125" height="650.03125" xmlns="http://www.w3.org/2000/svg" width="189.42529296875" id="tmpMermaidElement7658"><style>svg {background: white;}#tmpMermaidElement7658{font-family:"trebuchet ms",verdana,arial,sans-serif;font-size:16px;fill:#333;}#tmpMermaidElement7658 .error-icon{fill:#552222;}#tmpMermaidElement7658 .error-text{fill:#552222;stroke:#552222;}#tmpMermaidElement7658 .edge-thickness-normal{stroke-width:2px;}#tmpMermaidElement7658 .edge-thickness-thick{stroke-width:3.5px;}#tmpMermaidElement7658 .edge-pattern-solid{stroke-dasharray:0;}#tmpMermaidElement7658 .edge-pattern-dashed{stroke-dasharray:3;}#tmpMermaidElement7658 .edge-pattern-dotted{stroke-dasharray:2;}#tmpMermaidElement7658 .marker{fill:#333333;stroke:#333333;}#tmpMermaidElement7658 .marker.cross{stroke:#333333;}#tmpMermaidElement7658 svg{font-family:"trebuchet ms",verdana,arial,sans-serif;font-size:16px;}#tmpMermaidElement7658 .entityBox{fill:#ECECFF;stroke:#9370DB;}#tmpMermaidElement7658 .attributeBoxOdd{fill:#ffffff;stroke:#9370DB;}#tmpMermaidElement7658 .attributeBoxEven{fill:#f2f2f2;stroke:#9370DB;}#tmpMermaidElement7658 .relationshipLabelBox{fill:hsl(80, 100%, 96.2745098039%);opacity:0.7;background-color:hsl(80, 100%, 96.2745098039%);}#tmpMermaidElement7658 .relationshipLabelBox rect{opacity:0.5;}#tmpMermaidElement7658 .relationshipLine{stroke:#333333;}#tmpMermaidElement7658 .entityTitleText{text-anchor:middle;font-size:18px;fill:#333;}#tmpMermaidElement7658 #MD_PARENT_START{fill:#f5f5f5!important;stroke:#333333!important;stroke-width:1;}#tmpMermaidElement7658 #MD_PARENT_END{fill:#f5f5f5!important;stroke:#333333!important;stroke-width:1;}#tmpMermaidElement7658 :root{--mermaid-font-family:"trebuchet ms",verdana,arial,sans-serif;}</style><g></g><defs><marker orient="auto" markerHeight="240" markerWidth="190" refY="7" refX="0" id="MD_PARENT_START"><path d="M 18,7 L9,13 L1,7 L9,1 Z"></path></marker></defs><defs><marker orient="auto" markerHeight="28" markerWidth="20" refY="7" refX="19" id="MD_PARENT_END"><path d="M 18,7 L9,13 L1,7 L9,1 Z"></path></marker></defs><defs><marker orient="auto" markerHeight="18" markerWidth="18" refY="9" refX="0" id="ONLY_ONE_START"><path d="M9,0 L9,18 M15,0 L15,18" fill="none" stroke="gray"></path></marker></defs><defs><marker orient="auto" markerHeight="18" markerWidth="18" refY="9" refX="18" id="ONLY_ONE_END"><path d="M3,0 L3,18 M9,0 L9,18" fill="none" stroke="gray"></path></marker></defs><defs><marker orient="auto" markerHeight="18" markerWidth="30" refY="9" refX="0" id="ZERO_OR_ONE_START"><circle r="6" cy="9" cx="21" fill="white" stroke="gray"></circle><path d="M9,0 L9,18" fill="none" stroke="gray"></path></marker></defs><defs><marker orient="auto" markerHeight="18" markerWidth="30" refY="9" refX="30" id="ZERO_OR_ONE_END"><circle r="6" cy="9" cx="9" fill="white" stroke="gray"></circle><path d="M21,0 L21,18" fill="none" stroke="gray"></path></marker></defs><defs><marker orient="auto" markerHeight="36" markerWidth="45" refY="18" refX="18" id="ONE_OR_MORE_START"><path d="M0,18 Q 18,0 36,18 Q 18,36 0,18 M42,9 L42,27" fill="none" stroke="gray"></path></marker></defs><defs><marker orient="auto" markerHeight="36" markerWidth="45" refY="18" refX="27" id="ONE_OR_MORE_END"><path d="M3,9 L3,27 M9,18 Q27,0 45,18 Q27,36 9,18" fill="none" stroke="gray"></path></marker></defs><defs><marker orient="auto" markerHeight="36" markerWidth="57" refY="18" refX="18" id="ZERO_OR_MORE_START"><circle r="6" cy="18" cx="48" fill="white" stroke="gray"></circle><path d="M0,18 Q18,0 36,18 Q18,36 0,18" fill="none" stroke="gray"></path></marker></defs><defs><marker orient="auto" markerHeight="36" markerWidth="57" refY="18" refX="39" id="ZERO_OR_MORE_END"><circle r="6" cy="18" cx="9" fill="white" stroke="gray"></circle><path d="M21,18 Q39,0 57,18 Q39,36 21,18" fill="none" stroke="gray"></path></marker></defs><path style="stroke: gray; fill: none;" marker-start="url(#ONLY_ONE_START)" marker-end="url(#ZERO_OR_MORE_END)" d="M94.713,239.016L94.713,247.349C94.713,255.682,94.713,272.349,94.713,289.016C94.713,305.682,94.713,322.349,94.713,330.682L94.713,339.016" class="er relationshipLine"></path><g transform="translate(25.202102661132812,20 )" id="entity-PERSON-0411f458-596b-5e40-828e-dbef3c8360ea"><rect height="219.015625" width="139.02108764648438" y="0" x="0" class="er entityBox"></rect><text style="dominant-baseline: middle; text-anchor: middle; font-size: 12px;" transform="translate(69.51054382324219,13.5078125)" y="0" x="0" id="text-entity-PERSON-0411f458-596b-5e40-828e-dbef3c8360ea" class="er entityLabel">PERSON</text><rect height="24" width="37.4693603515625" y="27.015625" x="0" class="er attributeBoxOdd"></rect><text style="dominant-baseline: middle; font-size: 10.2px;" transform="translate(5,39.015625)" y="0" x="0" id="text-entity-PERSON-0411f458-596b-5e40-828e-dbef3c8360ea-attr-1-type" class="er entityLabel">int</text><rect height="24" width="77.125" y="27.015625" x="37.4693603515625" class="er attributeBoxOdd"></rect><text style="dominant-baseline: middle; font-size: 10.2px;" transform="translate(42.4693603515625,39.015625)" y="0" x="0" id="text-entity-PERSON-0411f458-596b-5e40-828e-dbef3c8360ea-attr-1-name" class="er entityLabel">id</text><rect height="24" width="24.426727294921875" y="27.015625" x="114.5943603515625" class="er attributeBoxOdd"></rect><text style="dominant-baseline: middle; font-size: 10.2px;" transform="translate(119.5943603515625,39.015625)" y="0" x="0" id="text-entity-PERSON-0411f458-596b-5e40-828e-dbef3c8360ea-attr-1-key" class="er entityLabel">PK</text><rect height="24" width="37.4693603515625" y="51.015625" x="0" class="er attributeBoxEven"></rect><text style="dominant-baseline: middle; font-size: 10.2px;" transform="translate(5,63.015625)" y="0" x="0" id="text-entity-PERSON-0411f458-596b-5e40-828e-dbef3c8360ea-attr-2-type" class="er entityLabel">string</text><rect height="24" width="77.125" y="51.015625" x="37.4693603515625" class="er attributeBoxEven"></rect><text style="dominant-baseline: middle; font-size: 10.2px;" transform="translate(42.4693603515625,63.015625)" y="0" x="0" id="text-entity-PERSON-0411f458-596b-5e40-828e-dbef3c8360ea-attr-2-name" class="er entityLabel">name</text><rect height="24" width="24.426727294921875" y="51.015625" x="114.5943603515625" class="er attributeBoxEven"></rect><text style="dominant-baseline: middle; font-size: 10.2px;" transform="translate(119.5943603515625,63.015625)" y="0" x="0" id="text-entity-PERSON-0411f458-596b-5e40-828e-dbef3c8360ea-attr-2-key" class="er entityLabel"></text><rect height="24" width="37.4693603515625" y="75.015625" x="0" class="er attributeBoxOdd"></rect><text style="dominant-baseline: middle; font-size: 10.2px;" transform="translate(5,87.015625)" y="0" x="0" id="text-entity-PERSON-0411f458-596b-5e40-828e-dbef3c8360ea-attr-3-type" class="er entityLabel">string</text><rect height="24" width="77.125" y="75.015625" x="37.4693603515625" class="er attributeBoxOdd"></rect><text style="dominant-baseline: middle; font-size: 10.2px;" transform="translate(42.4693603515625,87.015625)" y="0" x="0" id="text-entity-PERSON-0411f458-596b-5e40-828e-dbef3c8360ea-attr-3-name" class="er entityLabel">social_name</text><rect height="24" width="24.426727294921875" y="75.015625" x="114.5943603515625" class="er attributeBoxOdd"></rect><text style="dominant-baseline: middle; font-size: 10.2px;" transform="translate(119.5943603515625,87.015625)" y="0" x="0" id="text-entity-PERSON-0411f458-596b-5e40-828e-dbef3c8360ea-attr-3-key" class="er entityLabel"></text><rect height="24" width="37.4693603515625" y="99.015625" x="0" class="er attributeBoxEven"></rect><text style="dominant-baseline: middle; font-size: 10.2px;" transform="translate(5,111.015625)" y="0" x="0" id="text-entity-PERSON-0411f458-596b-5e40-828e-dbef3c8360ea-attr-4-type" class="er entityLabel">string</text><rect height="24" width="77.125" y="99.015625" x="37.4693603515625" class="er attributeBoxEven"></rect><text style="dominant-baseline: middle; font-size: 10.2px;" transform="translate(42.4693603515625,111.015625)" y="0" x="0" id="text-entity-PERSON-0411f458-596b-5e40-828e-dbef3c8360ea-attr-4-name" class="er entityLabel">email</text><rect height="24" width="24.426727294921875" y="99.015625" x="114.5943603515625" class="er attributeBoxEven"></rect><text style="dominant-baseline: middle; font-size: 10.2px;" transform="translate(119.5943603515625,111.015625)" y="0" x="0" id="text-entity-PERSON-0411f458-596b-5e40-828e-dbef3c8360ea-attr-4-key" class="er entityLabel">UK</text><rect height="24" width="37.4693603515625" y="123.015625" x="0" class="er attributeBoxOdd"></rect><text style="dominant-baseline: middle; font-size: 10.2px;" transform="translate(5,135.015625)" y="0" x="0" id="text-entity-PERSON-0411f458-596b-5e40-828e-dbef3c8360ea-attr-5-type" class="er entityLabel">string</text><rect height="24" width="77.125" y="123.015625" x="37.4693603515625" class="er attributeBoxOdd"></rect><text style="dominant-baseline: middle; font-size: 10.2px;" transform="translate(42.4693603515625,135.015625)" y="0" x="0" id="text-entity-PERSON-0411f458-596b-5e40-828e-dbef3c8360ea-attr-5-name" class="er entityLabel">cpf</text><rect height="24" width="24.426727294921875" y="123.015625" x="114.5943603515625" class="er attributeBoxOdd"></rect><text style="dominant-baseline: middle; font-size: 10.2px;" transform="translate(119.5943603515625,135.015625)" y="0" x="0" id="text-entity-PERSON-0411f458-596b-5e40-828e-dbef3c8360ea-attr-5-key" class="er entityLabel">UK</text><rect height="24" width="37.4693603515625" y="147.015625" x="0" class="er attributeBoxEven"></rect><text style="dominant-baseline: middle; font-size: 10.2px;" transform="translate(5,159.015625)" y="0" x="0" id="text-entity-PERSON-0411f458-596b-5e40-828e-dbef3c8360ea-attr-6-type" class="er entityLabel">string</text><rect height="24" width="77.125" y="147.015625" x="37.4693603515625" class="er attributeBoxEven"></rect><text style="dominant-baseline: middle; font-size: 10.2px;" transform="translate(42.4693603515625,159.015625)" y="0" x="0" id="text-entity-PERSON-0411f458-596b-5e40-828e-dbef3c8360ea-attr-6-name" class="er entityLabel">father_name</text><rect height="24" width="24.426727294921875" y="147.015625" x="114.5943603515625" class="er attributeBoxEven"></rect><text style="dominant-baseline: middle; font-size: 10.2px;" transform="translate(119.5943603515625,159.015625)" y="0" x="0" id="text-entity-PERSON-0411f458-596b-5e40-828e-dbef3c8360ea-attr-6-key" class="er entityLabel"></text><rect height="24" width="37.4693603515625" y="171.015625" x="0" class="er attributeBoxOdd"></rect><text style="dominant-baseline: middle; font-size: 10.2px;" transform="translate(5,183.015625)" y="0" x="0" id="text-entity-PERSON-0411f458-596b-5e40-828e-dbef3c8360ea-attr-7-type" class="er entityLabel">string</text><rect height="24" width="77.125" y="171.015625" x="37.4693603515625" class="er attributeBoxOdd"></rect><text style="dominant-baseline: middle; font-size: 10.2px;" transform="translate(42.4693603515625,183.015625)" y="0" x="0" id="text-entity-PERSON-0411f458-596b-5e40-828e-dbef3c8360ea-attr-7-name" class="er entityLabel">mother_name</text><rect height="24" width="24.426727294921875" y="171.015625" x="114.5943603515625" class="er attributeBoxOdd"></rect><text style="dominant-baseline: middle; font-size: 10.2px;" transform="translate(119.5943603515625,183.015625)" y="0" x="0" id="text-entity-PERSON-0411f458-596b-5e40-828e-dbef3c8360ea-attr-7-key" class="er entityLabel"></text><rect height="24" width="37.4693603515625" y="195.015625" x="0" class="er attributeBoxEven"></rect><text style="dominant-baseline: middle; font-size: 10.2px;" transform="translate(5,207.015625)" y="0" x="0" id="text-entity-PERSON-0411f458-596b-5e40-828e-dbef3c8360ea-attr-8-type" class="er entityLabel">string</text><rect height="24" width="77.125" y="195.015625" x="37.4693603515625" class="er attributeBoxEven"></rect><text style="dominant-baseline: middle; font-size: 10.2px;" transform="translate(42.4693603515625,207.015625)" y="0" x="0" id="text-entity-PERSON-0411f458-596b-5e40-828e-dbef3c8360ea-attr-8-name" class="er entityLabel">phone</text><rect height="24" width="24.426727294921875" y="195.015625" x="114.5943603515625" class="er attributeBoxEven"></rect><text style="dominant-baseline: middle; font-size: 10.2px;" transform="translate(119.5943603515625,207.015625)" y="0" x="0" id="text-entity-PERSON-0411f458-596b-5e40-828e-dbef3c8360ea-attr-8-key" class="er entityLabel"></text></g><g transform="translate(20,339.015625 )" id="entity-ADDRESS-153346fa-a574-56cf-a80f-86d44868c0af"><rect height="291.015625" width="149.42529296875" y="0" x="0" class="er entityBox"></rect><text style="dominant-baseline: middle; text-anchor: middle; font-size: 12px;" transform="translate(74.712646484375,13.5078125)" y="0" x="0" id="text-entity-ADDRESS-153346fa-a574-56cf-a80f-86d44868c0af" class="er entityLabel">ADDRESS</text><rect height="24" width="48.703125" y="27.015625" x="0" class="er attributeBoxOdd"></rect><text style="dominant-baseline: middle; font-size: 10.2px;" transform="translate(5,39.015625)" y="0" x="0" id="text-entity-ADDRESS-153346fa-a574-56cf-a80f-86d44868c0af-attr-1-type" class="er entityLabel">int</text><rect height="24" width="77.59375" y="27.015625" x="48.703125" class="er attributeBoxOdd"></rect><text style="dominant-baseline: middle; font-size: 10.2px;" transform="translate(53.703125,39.015625)" y="0" x="0" id="text-entity-ADDRESS-153346fa-a574-56cf-a80f-86d44868c0af-attr-1-name" class="er entityLabel">id</text><rect height="24" width="23.12841796875" y="27.015625" x="126.296875" class="er attributeBoxOdd"></rect><text style="dominant-baseline: middle; font-size: 10.2px;" transform="translate(131.296875,39.015625)" y="0" x="0" id="text-entity-ADDRESS-153346fa-a574-56cf-a80f-86d44868c0af-attr-1-key" class="er entityLabel">PK</text><rect height="24" width="48.703125" y="51.015625" x="0" class="er attributeBoxEven"></rect><text style="dominant-baseline: middle; font-size: 10.2px;" transform="translate(5,63.015625)" y="0" x="0" id="text-entity-ADDRESS-153346fa-a574-56cf-a80f-86d44868c0af-attr-2-type" class="er entityLabel">int</text><rect height="24" width="77.59375" y="51.015625" x="48.703125" class="er attributeBoxEven"></rect><text style="dominant-baseline: middle; font-size: 10.2px;" transform="translate(53.703125,63.015625)" y="0" x="0" id="text-entity-ADDRESS-153346fa-a574-56cf-a80f-86d44868c0af-attr-2-name" class="er entityLabel">person_id</text><rect height="24" width="23.12841796875" y="51.015625" x="126.296875" class="er attributeBoxEven"></rect><text style="dominant-baseline: middle; font-size: 10.2px;" transform="translate(131.296875,63.015625)" y="0" x="0" id="text-entity-ADDRESS-153346fa-a574-56cf-a80f-86d44868c0af-attr-2-key" class="er entityLabel">FK</text><rect height="24" width="48.703125" y="75.015625" x="0" class="er attributeBoxOdd"></rect><text style="dominant-baseline: middle; font-size: 10.2px;" transform="translate(5,87.015625)" y="0" x="0" id="text-entity-ADDRESS-153346fa-a574-56cf-a80f-86d44868c0af-attr-3-type" class="er entityLabel">string</text><rect height="24" width="77.59375" y="75.015625" x="48.703125" class="er attributeBoxOdd"></rect><text style="dominant-baseline: middle; font-size: 10.2px;" transform="translate(53.703125,87.015625)" y="0" x="0" id="text-entity-ADDRESS-153346fa-a574-56cf-a80f-86d44868c0af-attr-3-name" class="er entityLabel">type</text><rect height="24" width="23.12841796875" y="75.015625" x="126.296875" class="er attributeBoxOdd"></rect><text style="dominant-baseline: middle; font-size: 10.2px;" transform="translate(131.296875,87.015625)" y="0" x="0" id="text-entity-ADDRESS-153346fa-a574-56cf-a80f-86d44868c0af-attr-3-key" class="er entityLabel"></text><rect height="24" width="48.703125" y="99.015625" x="0" class="er attributeBoxEven"></rect><text style="dominant-baseline: middle; font-size: 10.2px;" transform="translate(5,111.015625)" y="0" x="0" id="text-entity-ADDRESS-153346fa-a574-56cf-a80f-86d44868c0af-attr-4-type" class="er entityLabel">string</text><rect height="24" width="77.59375" y="99.015625" x="48.703125" class="er attributeBoxEven"></rect><text style="dominant-baseline: middle; font-size: 10.2px;" transform="translate(53.703125,111.015625)" y="0" x="0" id="text-entity-ADDRESS-153346fa-a574-56cf-a80f-86d44868c0af-attr-4-name" class="er entityLabel">zipcode</text><rect height="24" width="23.12841796875" y="99.015625" x="126.296875" class="er attributeBoxEven"></rect><text style="dominant-baseline: middle; font-size: 10.2px;" transform="translate(131.296875,111.015625)" y="0" x="0" id="text-entity-ADDRESS-153346fa-a574-56cf-a80f-86d44868c0af-attr-4-key" class="er entityLabel"></text><rect height="24" width="48.703125" y="123.015625" x="0" class="er attributeBoxOdd"></rect><text style="dominant-baseline: middle; font-size: 10.2px;" transform="translate(5,135.015625)" y="0" x="0" id="text-entity-ADDRESS-153346fa-a574-56cf-a80f-86d44868c0af-attr-5-type" class="er entityLabel">string</text><rect height="24" width="77.59375" y="123.015625" x="48.703125" class="er attributeBoxOdd"></rect><text style="dominant-baseline: middle; font-size: 10.2px;" transform="translate(53.703125,135.015625)" y="0" x="0" id="text-entity-ADDRESS-153346fa-a574-56cf-a80f-86d44868c0af-attr-5-name" class="er entityLabel">street</text><rect height="24" width="23.12841796875" y="123.015625" x="126.296875" class="er attributeBoxOdd"></rect><text style="dominant-baseline: middle; font-size: 10.2px;" transform="translate(131.296875,135.015625)" y="0" x="0" id="text-entity-ADDRESS-153346fa-a574-56cf-a80f-86d44868c0af-attr-5-key" class="er entityLabel"></text><rect height="24" width="48.703125" y="147.015625" x="0" class="er attributeBoxEven"></rect><text style="dominant-baseline: middle; font-size: 10.2px;" transform="translate(5,159.015625)" y="0" x="0" id="text-entity-ADDRESS-153346fa-a574-56cf-a80f-86d44868c0af-attr-6-type" class="er entityLabel">string</text><rect height="24" width="77.59375" y="147.015625" x="48.703125" class="er attributeBoxEven"></rect><text style="dominant-baseline: middle; font-size: 10.2px;" transform="translate(53.703125,159.015625)" y="0" x="0" id="text-entity-ADDRESS-153346fa-a574-56cf-a80f-86d44868c0af-attr-6-name" class="er entityLabel">number</text><rect height="24" width="23.12841796875" y="147.015625" x="126.296875" class="er attributeBoxEven"></rect><text style="dominant-baseline: middle; font-size: 10.2px;" transform="translate(131.296875,159.015625)" y="0" x="0" id="text-entity-ADDRESS-153346fa-a574-56cf-a80f-86d44868c0af-attr-6-key" class="er entityLabel"></text><rect height="24" width="48.703125" y="171.015625" x="0" class="er attributeBoxOdd"></rect><text style="dominant-baseline: middle; font-size: 10.2px;" transform="translate(5,183.015625)" y="0" x="0" id="text-entity-ADDRESS-153346fa-a574-56cf-a80f-86d44868c0af-attr-7-type" class="er entityLabel">string</text><rect height="24" width="77.59375" y="171.015625" x="48.703125" class="er attributeBoxOdd"></rect><text style="dominant-baseline: middle; font-size: 10.2px;" transform="translate(53.703125,183.015625)" y="0" x="0" id="text-entity-ADDRESS-153346fa-a574-56cf-a80f-86d44868c0af-attr-7-name" class="er entityLabel">complement</text><rect height="24" width="23.12841796875" y="171.015625" x="126.296875" class="er attributeBoxOdd"></rect><text style="dominant-baseline: middle; font-size: 10.2px;" transform="translate(131.296875,183.015625)" y="0" x="0" id="text-entity-ADDRESS-153346fa-a574-56cf-a80f-86d44868c0af-attr-7-key" class="er entityLabel"></text><rect height="24" width="48.703125" y="195.015625" x="0" class="er attributeBoxEven"></rect><text style="dominant-baseline: middle; font-size: 10.2px;" transform="translate(5,207.015625)" y="0" x="0" id="text-entity-ADDRESS-153346fa-a574-56cf-a80f-86d44868c0af-attr-8-type" class="er entityLabel">string</text><rect height="24" width="77.59375" y="195.015625" x="48.703125" class="er attributeBoxEven"></rect><text style="dominant-baseline: middle; font-size: 10.2px;" transform="translate(53.703125,207.015625)" y="0" x="0" id="text-entity-ADDRESS-153346fa-a574-56cf-a80f-86d44868c0af-attr-8-name" class="er entityLabel">neighborhood</text><rect height="24" width="23.12841796875" y="195.015625" x="126.296875" class="er attributeBoxEven"></rect><text style="dominant-baseline: middle; font-size: 10.2px;" transform="translate(131.296875,207.015625)" y="0" x="0" id="text-entity-ADDRESS-153346fa-a574-56cf-a80f-86d44868c0af-attr-8-key" class="er entityLabel"></text><rect height="24" width="48.703125" y="219.015625" x="0" class="er attributeBoxOdd"></rect><text style="dominant-baseline: middle; font-size: 10.2px;" transform="translate(5,231.015625)" y="0" x="0" id="text-entity-ADDRESS-153346fa-a574-56cf-a80f-86d44868c0af-attr-9-type" class="er entityLabel">string</text><rect height="24" width="77.59375" y="219.015625" x="48.703125" class="er attributeBoxOdd"></rect><text style="dominant-baseline: middle; font-size: 10.2px;" transform="translate(53.703125,231.015625)" y="0" x="0" id="text-entity-ADDRESS-153346fa-a574-56cf-a80f-86d44868c0af-attr-9-name" class="er entityLabel">state</text><rect height="24" width="23.12841796875" y="219.015625" x="126.296875" class="er attributeBoxOdd"></rect><text style="dominant-baseline: middle; font-size: 10.2px;" transform="translate(131.296875,231.015625)" y="0" x="0" id="text-entity-ADDRESS-153346fa-a574-56cf-a80f-86d44868c0af-attr-9-key" class="er entityLabel"></text><rect height="24" width="48.703125" y="243.015625" x="0" class="er attributeBoxEven"></rect><text style="dominant-baseline: middle; font-size: 10.2px;" transform="translate(5,255.015625)" y="0" x="0" id="text-entity-ADDRESS-153346fa-a574-56cf-a80f-86d44868c0af-attr-10-type" class="er entityLabel">string</text><rect height="24" width="77.59375" y="243.015625" x="48.703125" class="er attributeBoxEven"></rect><text style="dominant-baseline: middle; font-size: 10.2px;" transform="translate(53.703125,255.015625)" y="0" x="0" id="text-entity-ADDRESS-153346fa-a574-56cf-a80f-86d44868c0af-attr-10-name" class="er entityLabel">city</text><rect height="24" width="23.12841796875" y="243.015625" x="126.296875" class="er attributeBoxEven"></rect><text style="dominant-baseline: middle; font-size: 10.2px;" transform="translate(131.296875,255.015625)" y="0" x="0" id="text-entity-ADDRESS-153346fa-a574-56cf-a80f-86d44868c0af-attr-10-key" class="er entityLabel"></text><rect height="24" width="48.703125" y="267.015625" x="0" class="er attributeBoxOdd"></rect><text style="dominant-baseline: middle; font-size: 10.2px;" transform="translate(5,279.015625)" y="0" x="0" id="text-entity-ADDRESS-153346fa-a574-56cf-a80f-86d44868c0af-attr-11-type" class="er entityLabel">boolean</text><rect height="24" width="77.59375" y="267.015625" x="48.703125" class="er attributeBoxOdd"></rect><text style="dominant-baseline: middle; font-size: 10.2px;" transform="translate(53.703125,279.015625)" y="0" x="0" id="text-entity-ADDRESS-153346fa-a574-56cf-a80f-86d44868c0af-attr-11-name" class="er entityLabel">is_active</text><rect height="24" width="23.12841796875" y="267.015625" x="126.296875" class="er attributeBoxOdd"></rect><text style="dominant-baseline: middle; font-size: 10.2px;" transform="translate(131.296875,279.015625)" y="0" x="0" id="text-entity-ADDRESS-153346fa-a574-56cf-a80f-86d44868c0af-attr-11-key" class="er entityLabel"></text></g><rect height="17.015625" width="20.02734375" y="280.5081787109375" x="84.69932556152344" class="er relationshipLabelBox"></rect><text style="text-anchor: middle; dominant-baseline: middle; font-size: 12px;" y="289.0159912109375" x="94.71299743652344" id="rel1" class="er relationshipLabel">has</text></svg>